# xmcd CD database file
#
# Track frame offsets:
#	150
#	20530
#	38235
#	57760
#	75007
#	91080
#	108547
#	124523
#	146719
#	157990
#	176763
#	195460
#	198129
#
# Disc length: 2878 seconds
#
# Revision: 0
# Processed by: cddbd v1.5.2PL0 Copyright (c) Steve Scherf et al.
# Submitted via: CDex 1.51
#
DISCID=990b3c0d
DTITLE=Jonatha Brooke - The Works
DYEAR=2009
DGENRE=Jazz
TTITLE0=My Sweet and Bitter Bowl
TTITLE1=You'd Oughta Be Satisfied Now
TTITLE2=All You Gotta Do Is Touch Me
TTITLE3=My Flowers Grow Green
TTITLE4=Madonna On The Curb
TTITLE5=There's More True Lovers Than One
TTITLE6=Sweetest Angel
TTITLE7=My Battle
TTITLE8=Little Bird
TTITLE9=Taste Of Danger
TTITLE10=New Star
TTITLE11=Coney Island Intro
TTITLE12=King Of My Love
EXTD=YEAR: 2009
EXTT0=
EXTT1=
EXTT2=
EXTT3=
EXTT4=
EXTT5=
EXTT6=
EXTT7=
EXTT8=
EXTT9=
EXTT10=
EXTT11=
EXTT12=
PLAYORDER=
